<svg width="136" height="36" viewBox="0 0 136 36" fill="none" xmlns="http://www.w3.org/2000/svg">
<path d="M0 35.3864V0.477276H9.47727V27.75H23.5909V35.3864H0ZM59.8807 17.9318C59.8807 21.8182 59.125 25.0966 57.6136 27.767C56.1023 30.4261 54.0625 32.4432 51.4943 33.8182C48.9261 35.1818 46.0625 35.8636 42.9034 35.8636C39.7216 35.8636 36.8466 35.1761 34.2784 33.8011C31.7216 32.4148 29.6875 30.392 28.1761 27.733C26.6761 25.0625 25.9261 21.7955 25.9261 17.9318C25.9261 14.0455 26.6761 10.7727 28.1761 8.11364C29.6875 5.44318 31.7216 3.42614 34.2784 2.0625C36.8466 0.687503 39.7216 2.86102e-06 42.9034 2.86102e-06C46.0625 2.86102e-06 48.9261 0.687503 51.4943 2.0625C54.0625 3.42614 56.1023 5.44318 57.6136 8.11364C59.125 10.7727 59.8807 14.0455 59.8807 17.9318ZM50.1307 17.9318C50.1307 15.8409 49.8523 14.0795 49.2955 12.6477C48.75 11.2045 47.9375 10.1136 46.858 9.375C45.7898 8.625 44.4716 8.25 42.9034 8.25C41.3352 8.25 40.0114 8.625 38.9318 9.375C37.8636 10.1136 37.0511 11.2045 36.4943 12.6477C35.9489 14.0795 35.6761 15.8409 35.6761 17.9318C35.6761 20.0227 35.9489 21.7898 36.4943 23.233C37.0511 24.6648 37.8636 25.7557 38.9318 26.5057C40.0114 27.2443 41.3352 27.6136 42.9034 27.6136C44.4716 27.6136 45.7898 27.2443 46.858 26.5057C47.9375 25.7557 48.75 24.6648 49.2955 23.233C49.8523 21.7898 50.1307 20.0227 50.1307 17.9318ZM86.9361 12C86.7884 11.3977 86.5554 10.8693 86.2372 10.4148C85.919 9.94887 85.5213 9.55682 85.044 9.23864C84.5781 8.90909 84.0327 8.66478 83.4077 8.50568C82.794 8.33523 82.1179 8.25 81.3793 8.25C79.7884 8.25 78.4304 8.63068 77.3054 9.39205C76.1918 10.1534 75.3395 11.25 74.7486 12.6818C74.169 14.1136 73.8793 15.8409 73.8793 17.8636C73.8793 19.9091 74.1577 21.6591 74.7145 23.1136C75.2713 24.5682 76.1009 25.6818 77.2031 26.4545C78.3054 27.2273 79.6747 27.6136 81.3111 27.6136C82.7543 27.6136 83.9531 27.4034 84.9077 26.983C85.8736 26.5625 86.5952 25.9659 87.0724 25.1932C87.5497 24.4205 87.7884 23.5114 87.7884 22.4659L89.4247 22.6364H81.4474V15.8864H96.9247V20.7273C96.9247 23.9091 96.2486 26.6307 94.8963 28.892C93.5554 31.142 91.7031 32.8693 89.3395 34.0739C86.9872 35.267 84.2884 35.8636 81.2429 35.8636C77.8452 35.8636 74.8622 35.142 72.294 33.6989C69.7259 32.2557 67.7202 30.1989 66.277 27.5284C64.8452 24.858 64.1293 21.6818 64.1293 18C64.1293 15.1136 64.5668 12.5568 65.4418 10.3295C66.3281 8.10228 67.5554 6.22159 69.1236 4.6875C70.6918 3.14205 72.5043 1.97728 74.5611 1.19318C76.6179 0.39773 78.8224 2.86102e-06 81.1747 2.86102e-06C83.2429 2.86102e-06 85.1634 0.295458 86.9361 0.886368C88.7202 1.46591 90.294 2.29546 91.6577 3.375C93.0327 4.44318 94.1406 5.71023 94.9815 7.17614C95.8224 8.64205 96.3338 10.25 96.5156 12H86.9361ZM135.162 17.9318C135.162 21.8182 134.406 25.0966 132.895 27.767C131.384 30.4261 129.344 32.4432 126.776 33.8182C124.207 35.1818 121.344 35.8636 118.185 35.8636C115.003 35.8636 112.128 35.1761 109.56 33.8011C107.003 32.4148 104.969 30.392 103.457 27.733C101.957 25.0625 101.207 21.7955 101.207 17.9318C101.207 14.0455 101.957 10.7727 103.457 8.11364C104.969 5.44318 107.003 3.42614 109.56 2.0625C112.128 0.687503 115.003 2.86102e-06 118.185 2.86102e-06C121.344 2.86102e-06 124.207 0.687503 126.776 2.0625C129.344 3.42614 131.384 5.44318 132.895 8.11364C134.406 10.7727 135.162 14.0455 135.162 17.9318ZM125.412 17.9318C125.412 15.8409 125.134 14.0795 124.577 12.6477C124.031 11.2045 123.219 10.1136 122.139 9.375C121.071 8.625 119.753 8.25 118.185 8.25C116.616 8.25 115.293 8.625 114.213 9.375C113.145 10.1136 112.332 11.2045 111.776 12.6477C111.23 14.0795 110.957 15.8409 110.957 17.9318C110.957 20.0227 111.23 21.7898 111.776 23.233C112.332 24.6648 113.145 25.7557 114.213 26.5057C115.293 27.2443 116.616 27.6136 118.185 27.6136C119.753 27.6136 121.071 27.2443 122.139 26.5057C123.219 25.7557 124.031 24.6648 124.577 23.233C125.134 21.7898 125.412 20.0227 125.412 17.9318Z" fill="white"/>
</svg>
